<?xml version="1.0" standalone="no"?>
<!DOCTYPE svg PUBLIC "-//W3C//DTD SVG 20010904//EN"
 "http://www.w3.org/TR/2001/REC-SVG-20010904/DTD/svg10.dtd">
<svg version="1.0" xmlns="http://www.w3.org/2000/svg"
 width="512.000000pt" height="512.000000pt" viewBox="0 0 512.000000 512.000000"
 preserveAspectRatio="xMidYMid meet">

<g transform="translate(0.000000,512.000000) scale(0.100000,-0.100000)"
fill="#000000" stroke="none">
<path d="M2219 3336 l-322 -334 -136 5 c-563 18 -1237 30 -1253 22 -11 -6 -18
-21 -18 -37 0 -31 714 -1511 738 -1529 23 -19 2641 -19 2664 -1 24 19 738
1500 738 1531 0 15 -8 30 -18 36 -12 6 -230 5 -612 -4 -327 -8 -640 -14 -695
-14 l-100 1 -153 161 c-313 332 -477 498 -494 497 -9 0 -162 -150 -339 -334z
m291 -510 l0 -664 -450 201 -449 200 248 256 c136 141 337 349 447 463 109
115 200 208 202 208 1 0 2 -299 2 -664z m567 179 c226 -236 412 -434 413 -440
2 -5 -181 -92 -406 -192 -225 -100 -424 -189 -441 -197 l-33 -16 0 667 0 668
28 -30 c16 -17 213 -223 439 -460z m-1507 -94 l234 -6 -145 -149 -145 -150
-355 158 c-195 87 -356 160 -359 163 -3 3 117 2 265 -2 149 -4 376 -10 505
-14z m2749 15 c-9 -9 -704 -316 -715 -316 -7 0 -76 66 -153 148 -140 147 -140
147 -108 150 96 8 983 25 976 18z m-2769 -446 c459 -204 846 -378 860 -385
l25 -13 -25 -10 c-14 -6 -272 -121 -575 -256 -302 -135 -553 -242 -557 -238
-10 10 -628 1284 -628 1294 0 11 -67 40 900 -392z m2610 -255 c-171 -352 -314
-643 -318 -647 -6 -5 -1070 462 -1136 499 -14 8 166 91 871 406 488 218 889
393 891 389 1 -4 -138 -296 -308 -647z m-1055 -438 l520 -232 -533 -3 c-292
-1 -771 -1 -1064 0 l-532 3 530 237 c291 130 536 234 544 232 8 -3 249 -110
535 -237z"/>
</g>
</svg>
